<mxfile host="app.diagrams.net" modified="2023-07-21T14:00:56.026Z" agent="Mozilla/5.0 (Windows NT 10.0; Win64; x64) AppleWebKit/537.36 (KHTML, like Gecko) Chrome/114.0.0.0 YaBrowser/23.7.0.2526 Yowser/2.5 Safari/537.36" etag="OuzL8lMTM4m4aQuE2iFy" version="21.6.5" type="google">
  <diagram name="Страница 1" id="IyhP0Bf16u9Pp1GBC6mL">
    <mxGraphModel grid="1" page="1" gridSize="10" guides="1" tooltips="1" connect="1" arrows="1" fold="1" pageScale="1" pageWidth="827" pageHeight="1169" math="0" shadow="0">
      <root>
        <mxCell id="0" />
        <mxCell id="1" parent="0" />
        <mxCell id="8h4SvegEHWFZaO0T5vBt-23" style="edgeStyle=orthogonalEdgeStyle;rounded=0;orthogonalLoop=1;jettySize=auto;html=1;entryX=0.5;entryY=0;entryDx=0;entryDy=0;" edge="1" parent="1" source="8h4SvegEHWFZaO0T5vBt-1">
          <mxGeometry relative="1" as="geometry">
            <mxPoint x="350" y="140" as="targetPoint" />
          </mxGeometry>
        </mxCell>
        <mxCell id="8h4SvegEHWFZaO0T5vBt-1" value="Begin" style="strokeWidth=2;html=1;shape=mxgraph.flowchart.terminator;whiteSpace=wrap;" vertex="1" parent="1">
          <mxGeometry x="300" y="50" width="100" height="60" as="geometry" />
        </mxCell>
        <mxCell id="8h4SvegEHWFZaO0T5vBt-9" style="edgeStyle=orthogonalEdgeStyle;rounded=0;orthogonalLoop=1;jettySize=auto;html=1;entryX=0.5;entryY=0;entryDx=0;entryDy=0;entryPerimeter=0;" edge="1" parent="1" source="8h4SvegEHWFZaO0T5vBt-3" target="8h4SvegEHWFZaO0T5vBt-4">
          <mxGeometry relative="1" as="geometry" />
        </mxCell>
        <mxCell id="8h4SvegEHWFZaO0T5vBt-3" value="&lt;div&gt;numbers = [1, 8, 3, 8, 2, 6, 8, 8]&lt;/div&gt;&lt;div&gt;index = 0&lt;/div&gt;&lt;div&gt;maximum = numbers[index]&lt;/div&gt;&lt;div&gt;count_maximal = 0&lt;/div&gt;" style="rounded=1;whiteSpace=wrap;html=1;absoluteArcSize=1;arcSize=14;strokeWidth=2;" vertex="1" parent="1">
          <mxGeometry x="250" y="140" width="200" height="90" as="geometry" />
        </mxCell>
        <mxCell id="8h4SvegEHWFZaO0T5vBt-20" style="edgeStyle=orthogonalEdgeStyle;rounded=0;orthogonalLoop=1;jettySize=auto;html=1;exitX=1;exitY=0.5;exitDx=0;exitDy=0;exitPerimeter=0;entryX=0.5;entryY=0;entryDx=0;entryDy=0;entryPerimeter=0;" edge="1" parent="1" source="8h4SvegEHWFZaO0T5vBt-4" target="8h4SvegEHWFZaO0T5vBt-19">
          <mxGeometry relative="1" as="geometry">
            <Array as="points">
              <mxPoint x="690" y="320" />
              <mxPoint x="690" y="940" />
              <mxPoint x="350" y="940" />
            </Array>
            <mxPoint x="420" y="960" as="targetPoint" />
            <mxPoint x="500" y="320" as="sourcePoint" />
          </mxGeometry>
        </mxCell>
        <mxCell id="ZdXqoMGXDXWdog2bFhd_-5" style="edgeStyle=orthogonalEdgeStyle;rounded=0;orthogonalLoop=1;jettySize=auto;html=1;entryX=0.5;entryY=0;entryDx=0;entryDy=0;entryPerimeter=0;" edge="1" parent="1" source="8h4SvegEHWFZaO0T5vBt-4" target="8h4SvegEHWFZaO0T5vBt-5">
          <mxGeometry relative="1" as="geometry" />
        </mxCell>
        <mxCell id="8h4SvegEHWFZaO0T5vBt-4" value="index &amp;lt; numbers.length" style="strokeWidth=2;html=1;shape=mxgraph.flowchart.decision;whiteSpace=wrap;" vertex="1" parent="1">
          <mxGeometry x="260" y="270" width="180" height="100" as="geometry" />
        </mxCell>
        <mxCell id="8h4SvegEHWFZaO0T5vBt-11" style="edgeStyle=orthogonalEdgeStyle;rounded=0;orthogonalLoop=1;jettySize=auto;html=1;entryX=0.5;entryY=0;entryDx=0;entryDy=0;entryPerimeter=0;" edge="1" parent="1" source="8h4SvegEHWFZaO0T5vBt-5" target="8h4SvegEHWFZaO0T5vBt-6">
          <mxGeometry relative="1" as="geometry" />
        </mxCell>
        <mxCell id="8h4SvegEHWFZaO0T5vBt-12" style="edgeStyle=orthogonalEdgeStyle;rounded=0;orthogonalLoop=1;jettySize=auto;html=1;entryX=0;entryY=0.5;entryDx=0;entryDy=0;" edge="1" parent="1" source="8h4SvegEHWFZaO0T5vBt-5" target="8h4SvegEHWFZaO0T5vBt-7">
          <mxGeometry relative="1" as="geometry" />
        </mxCell>
        <mxCell id="8h4SvegEHWFZaO0T5vBt-5" value="numbers[index] &amp;gt; maximum" style="strokeWidth=2;html=1;shape=mxgraph.flowchart.decision;whiteSpace=wrap;" vertex="1" parent="1">
          <mxGeometry x="260" y="415" width="180" height="100" as="geometry" />
        </mxCell>
        <mxCell id="8h4SvegEHWFZaO0T5vBt-14" style="edgeStyle=orthogonalEdgeStyle;rounded=0;orthogonalLoop=1;jettySize=auto;html=1;" edge="1" parent="1" source="8h4SvegEHWFZaO0T5vBt-6" target="8h4SvegEHWFZaO0T5vBt-8">
          <mxGeometry relative="1" as="geometry" />
        </mxCell>
        <mxCell id="ZdXqoMGXDXWdog2bFhd_-3" style="edgeStyle=orthogonalEdgeStyle;rounded=0;orthogonalLoop=1;jettySize=auto;html=1;" edge="1" parent="1" source="8h4SvegEHWFZaO0T5vBt-6">
          <mxGeometry relative="1" as="geometry">
            <mxPoint x="510" y="790" as="targetPoint" />
            <Array as="points">
              <mxPoint x="510" y="610" />
              <mxPoint x="510" y="740" />
            </Array>
          </mxGeometry>
        </mxCell>
        <mxCell id="8h4SvegEHWFZaO0T5vBt-6" value="numbers[index] == maximum" style="strokeWidth=2;html=1;shape=mxgraph.flowchart.decision;whiteSpace=wrap;" vertex="1" parent="1">
          <mxGeometry x="260" y="560" width="180" height="100" as="geometry" />
        </mxCell>
        <mxCell id="8h4SvegEHWFZaO0T5vBt-13" style="edgeStyle=orthogonalEdgeStyle;rounded=0;orthogonalLoop=1;jettySize=auto;html=1;" edge="1" parent="1" source="8h4SvegEHWFZaO0T5vBt-7">
          <mxGeometry relative="1" as="geometry">
            <mxPoint x="350" y="790" as="targetPoint" />
            <Array as="points">
              <mxPoint x="590" y="790" />
              <mxPoint x="350" y="790" />
            </Array>
          </mxGeometry>
        </mxCell>
        <mxCell id="8h4SvegEHWFZaO0T5vBt-7" value="&lt;div&gt;maxmum = numbers[index]&lt;/div&gt;&lt;div&gt;&lt;span style=&quot;background-color: initial;&quot;&gt;count_maximal = 1&lt;/span&gt;&lt;/div&gt;" style="rounded=1;whiteSpace=wrap;html=1;absoluteArcSize=1;arcSize=14;strokeWidth=2;" vertex="1" parent="1">
          <mxGeometry x="510" y="435" width="160" height="60" as="geometry" />
        </mxCell>
        <mxCell id="ZdXqoMGXDXWdog2bFhd_-4" style="edgeStyle=orthogonalEdgeStyle;rounded=0;orthogonalLoop=1;jettySize=auto;html=1;entryX=0.5;entryY=0;entryDx=0;entryDy=0;" edge="1" parent="1" source="8h4SvegEHWFZaO0T5vBt-8" target="8h4SvegEHWFZaO0T5vBt-15">
          <mxGeometry relative="1" as="geometry" />
        </mxCell>
        <mxCell id="8h4SvegEHWFZaO0T5vBt-8" value="max = A[i]&lt;br&gt;i_max = i" style="rounded=1;whiteSpace=wrap;html=1;absoluteArcSize=1;arcSize=14;strokeWidth=2;" vertex="1" parent="1">
          <mxGeometry x="300" y="700" width="100" height="60" as="geometry" />
        </mxCell>
        <mxCell id="8h4SvegEHWFZaO0T5vBt-18" style="edgeStyle=orthogonalEdgeStyle;rounded=0;orthogonalLoop=1;jettySize=auto;html=1;entryX=0;entryY=0.5;entryDx=0;entryDy=0;entryPerimeter=0;" edge="1" parent="1" source="8h4SvegEHWFZaO0T5vBt-15" target="8h4SvegEHWFZaO0T5vBt-4">
          <mxGeometry relative="1" as="geometry">
            <Array as="points">
              <mxPoint x="350" y="910" />
              <mxPoint x="190" y="910" />
              <mxPoint x="190" y="320" />
            </Array>
          </mxGeometry>
        </mxCell>
        <mxCell id="8h4SvegEHWFZaO0T5vBt-15" value="i = i + 1" style="rounded=1;whiteSpace=wrap;html=1;absoluteArcSize=1;arcSize=14;strokeWidth=2;" vertex="1" parent="1">
          <mxGeometry x="300" y="830" width="100" height="50" as="geometry" />
        </mxCell>
        <mxCell id="8h4SvegEHWFZaO0T5vBt-22" style="edgeStyle=orthogonalEdgeStyle;rounded=0;orthogonalLoop=1;jettySize=auto;html=1;entryX=0.5;entryY=0;entryDx=0;entryDy=0;entryPerimeter=0;" edge="1" parent="1" source="8h4SvegEHWFZaO0T5vBt-19" target="8h4SvegEHWFZaO0T5vBt-21">
          <mxGeometry relative="1" as="geometry" />
        </mxCell>
        <mxCell id="8h4SvegEHWFZaO0T5vBt-19" value="print(count_maximal)" style="strokeWidth=2;html=1;shape=mxgraph.flowchart.document2;whiteSpace=wrap;size=0.25;" vertex="1" parent="1">
          <mxGeometry x="277.5" y="980" width="145" height="60" as="geometry" />
        </mxCell>
        <mxCell id="8h4SvegEHWFZaO0T5vBt-21" value="End" style="strokeWidth=2;html=1;shape=mxgraph.flowchart.terminator;whiteSpace=wrap;" vertex="1" parent="1">
          <mxGeometry x="300" y="1080" width="100" height="60" as="geometry" />
        </mxCell>
        <mxCell id="8h4SvegEHWFZaO0T5vBt-25" value="true" style="text;html=1;align=center;verticalAlign=middle;resizable=0;points=[];autosize=1;strokeColor=none;fillColor=none;" vertex="1" parent="1">
          <mxGeometry x="355" y="370" width="40" height="30" as="geometry" />
        </mxCell>
        <mxCell id="8h4SvegEHWFZaO0T5vBt-26" value="false" style="text;html=1;align=center;verticalAlign=middle;resizable=0;points=[];autosize=1;strokeColor=none;fillColor=none;" vertex="1" parent="1">
          <mxGeometry x="435" y="290" width="50" height="30" as="geometry" />
        </mxCell>
        <mxCell id="8h4SvegEHWFZaO0T5vBt-27" value="false" style="text;html=1;align=center;verticalAlign=middle;resizable=0;points=[];autosize=1;strokeColor=none;fillColor=none;" vertex="1" parent="1">
          <mxGeometry x="350" y="515" width="50" height="30" as="geometry" />
        </mxCell>
        <mxCell id="8h4SvegEHWFZaO0T5vBt-28" value="false" style="text;html=1;align=center;verticalAlign=middle;resizable=0;points=[];autosize=1;strokeColor=none;fillColor=none;" vertex="1" parent="1">
          <mxGeometry x="435" y="580" width="50" height="30" as="geometry" />
        </mxCell>
        <mxCell id="8h4SvegEHWFZaO0T5vBt-29" value="true" style="text;html=1;align=center;verticalAlign=middle;resizable=0;points=[];autosize=1;strokeColor=none;fillColor=none;" vertex="1" parent="1">
          <mxGeometry x="440" y="435" width="40" height="30" as="geometry" />
        </mxCell>
        <mxCell id="8h4SvegEHWFZaO0T5vBt-30" value="true" style="text;html=1;align=center;verticalAlign=middle;resizable=0;points=[];autosize=1;strokeColor=none;fillColor=none;" vertex="1" parent="1">
          <mxGeometry x="350" y="660" width="40" height="30" as="geometry" />
        </mxCell>
      </root>
    </mxGraphModel>
  </diagram>
</mxfile>
